<svg xmlns="http://www.w3.org/2000/svg" width="30" height="30" viewBox="0 0 30 30"><defs><style>.a{fill:none;}.b{fill:rgba(255,255,255,0.87);}</style></defs><path class="a" d="M0,0H30V30H0Z"/><path class="b" d="M15,28a2.693,2.693,0,0,0,2.75-2.615h-5.5A2.693,2.693,0,0,0,15,28Zm8.25-7.846V13.615c0-4.015-2.241-7.375-6.187-8.265V4.462a2.065,2.065,0,0,0-4.125,0v.889C9.005,6.24,6.75,9.588,6.75,13.615v6.538L4,22.769v1.308H26V22.769ZM20.5,21.462H9.5V13.615c0-3.243,2.076-5.885,5.5-5.885s5.5,2.642,5.5,5.885Z"/></svg>