<svg xmlns="http://www.w3.org/2000/svg" width="18" height="18" viewBox="0 0 18 18"><defs><style>.a{fill:rgba(0,0,0,0.87);}</style></defs><path class="a" d="M0,2.421V15.576a1.53,1.53,0,0,0,1.511,1.53H14.665a1.53,1.53,0,0,0,1.53-1.53V7.545a.956.956,0,0,0-1.912,0v7.648H1.912V2.822H9.56A.956.956,0,0,0,9.56.91H1.511A1.511,1.511,0,0,0,0,2.421Z" transform="translate(0 0.895)"/><path class="a" d="M11.625,6.208a.992.992,0,0,0,.992-.992V0H7.381a.992.992,0,0,0,0,1.983H9.225L6.389,4.819a.952.952,0,0,0,0,1.388.992.992,0,0,0,.694.3,1.011,1.011,0,0,0,.813-.3l2.737-2.816V5.216a.992.992,0,0,0,.992.992Z" transform="translate(5.383)"/></svg>