<svg xmlns="http://www.w3.org/2000/svg" width="25" height="24" viewBox="0 0 25 24">
  <g id="noun_subscribe_2445067" transform="translate(-2.5 -5)">
    <path id="Path_529" data-name="Path 529" d="M25.471,5H4.555A2.07,2.07,0,0,0,2.5,7.08V12.2a2.07,2.07,0,0,0,2.055,2.08h8.482v6.453l-.9-.907a1.935,1.935,0,0,0-2.476-.24,2.007,2.007,0,0,0-.421,2.907l3.583,4.373A5.842,5.842,0,0,0,17.331,29H19.57a5,5,0,0,0,3.662-1.547,5.128,5.128,0,0,0,1.528-3.707v-4.48a1.946,1.946,0,0,0-1.923-1.947,1.9,1.9,0,0,0-.922.24,1.918,1.918,0,0,0-2.634-.8,1.92,1.92,0,0,0-1.712-1.04,1.958,1.958,0,0,0-.685.133V14.307h8.561a2.07,2.07,0,0,0,2.055-2.08V7.08A2.031,2.031,0,0,0,25.471,5ZM18.912,19.987a.645.645,0,0,0,.632-.64v-.88a.685.685,0,1,1,1.37,0v1.68a.632.632,0,1,0,1.264,0v-.88a.685.685,0,1,1,1.37,0v4.48a4.021,4.021,0,0,1-1.159,2.827A3.923,3.923,0,0,1,19.6,27.747H17.357a4.545,4.545,0,0,1-3.53-1.68l-3.609-4.4a.709.709,0,0,1-.158-.56.613.613,0,0,1,.316-.48.7.7,0,0,1,.4-.133.715.715,0,0,1,.5.213l1.449,1.44A.921.921,0,0,0,14.3,21.48V12.093a.7.7,0,0,1,.685-.693.614.614,0,0,1,.474.213.721.721,0,0,1,.211.48v6.453a.632.632,0,1,0,1.264,0v-.88a.685.685,0,1,1,1.37,0v1.68A.591.591,0,0,0,18.912,19.987Zm7.3-7.787a.764.764,0,0,1-.738.773H16.91v-.88a1.948,1.948,0,0,0-.58-1.387,1.877,1.877,0,0,0-1.37-.56,1.946,1.946,0,0,0-1.923,1.947v.88H4.555a.747.747,0,0,1-.738-.773V7.08a.764.764,0,0,1,.738-.773H25.471a.747.747,0,0,1,.738.773Z" transform="translate(0 0)" fill="rgba(0,0,0,0.6)"/>
  </g>
</svg>
