<svg xmlns="http://www.w3.org/2000/svg" width="34" height="30.678" viewBox="0 0 34 30.678">
  <g id="noun_campaign_2328694" transform="translate(-13.996 -20)">
    <path id="Path_515" data-name="Path 515" d="M45.958,20H44.943a2.04,2.04,0,0,0-1.88,1.29.7.7,0,0,0-.056.073L28.829,25.2a2.046,2.046,0,0,0-1.912-1.362H19.1a2.069,2.069,0,0,0-2.04,2.092v.352h-.421c-2.3,0-2.639,3.607-2.639,5.757a14.36,14.36,0,0,0,.408,3.592c.559,2.068,1.609,2.5,2.391,2.5l.262,0v.345a2.081,2.081,0,0,0,1.7,2.063v5.955a4.081,4.081,0,1,0,8.16,0V40.568a2.046,2.046,0,0,0,1.911-1.36l14.2,3.86c.009.013.019.024.029.036a2.04,2.04,0,0,0,1.885,1.3h1.015A2.069,2.069,0,0,0,48,42.314V22.09A2.067,2.067,0,0,0,45.958,20Zm-28.9,16.737-.262,0c-1.879,0-1.9-9.062-.156-9.062h.418Zm8.5,9.757a2.721,2.721,0,1,1-5.44,0V45.449h5.44Zm0-2.44h-5.44V40.568h5.44ZM27.6,26.449V38.477a.689.689,0,0,1-.68.7H19.1a.688.688,0,0,1-.679-.7V25.926a.689.689,0,0,1,.68-.7h7.82a.689.689,0,0,1,.68.7ZM42.9,41.59,28.957,37.8V26.6L42.9,22.835Zm3.74.724a.689.689,0,0,1-.68.7H44.942a.687.687,0,0,1-.678-.7v-.354l-.007,0V22.467l.007,0v-.373a.689.689,0,0,1,.68-.7h1.015a.687.687,0,0,1,.678.7Z" transform="translate(0)"/>
    <path id="Path_516" data-name="Path 516" d="M44.7,41a.7.7,0,0,0-.7.7v8.367a.7.7,0,1,0,1.394,0V41.7a.7.7,0,0,0-.7-.7Z" transform="translate(-19.814 -13.679)"/>
    <path id="Path_517" data-name="Path 517" d="M34.7,41a.7.7,0,0,0-.7.7v8.367a.7.7,0,1,0,1.394,0V41.7a.7.7,0,0,0-.7-.7Z" transform="translate(-13.21 -13.679)"/>
  </g>
</svg>
