<svg xmlns="http://www.w3.org/2000/svg" width="38" height="30" viewBox="0 0 38 30">
  <g id="noun_analytics_1928619" transform="translate(-1.33 -64)">
    <g id="Group_741" data-name="Group 741" transform="translate(1.33 64)">
      <path id="Path_524" data-name="Path 524" d="M50.218,86.891h-.86V67.938A3.948,3.948,0,0,0,45.441,64H18.559a3.948,3.948,0,0,0-3.917,3.938V86.891h-.86a.769.769,0,0,0-.782.758v2.414A3.936,3.936,0,0,0,16.909,94H47.091A3.936,3.936,0,0,0,51,90.063V87.656a.764.764,0,0,0-.774-.766ZM16.206,67.938a2.385,2.385,0,0,1,2.353-2.375H45.433a2.385,2.385,0,0,1,2.353,2.375V86.891H46.223V68.117a.736.736,0,0,0-.719-.758H18.52a.736.736,0,0,0-.751.727v18.8H16.206ZM44.667,86.891H36.59a.8.8,0,0,0-.579.242l-.633.7a2.39,2.39,0,0,1-1.728.773H30.342a2.39,2.39,0,0,1-1.728-.773l-.633-.688a.813.813,0,0,0-.579-.258H19.333V68.922H44.667Zm4.77,3.172a2.379,2.379,0,0,1-2.346,2.375H16.909a2.379,2.379,0,0,1-2.346-2.375V88.453h12.5l.4.445a3.952,3.952,0,0,0,2.877,1.273H33.65A3.952,3.952,0,0,0,36.527,88.9l.4-.445h12.51Z" transform="translate(-13 -64)"/>
      <path id="Path_525" data-name="Path 525" d="M145.483,176.114h13.892a.784.784,0,0,0,0-1.569H145.569v-10.66a.784.784,0,0,0-1.569,0V174.6A1.488,1.488,0,0,0,145.483,176.114Z" transform="translate(-133.782 -155.382)"/>
      <path id="Path_526" data-name="Path 526" d="M170.5,193.054a2.007,2.007,0,0,0,2-1.992,2.05,2.05,0,0,0-.227-.933l.824-1.035a1.989,1.989,0,0,0,2.494-.306l.612.5a2,2,0,1,0,3.969.3,1.052,1.052,0,0,0-.008-.157l1.459-1.585a1.993,1.993,0,1,0-1.208-1l-1.051,1.145a1.991,1.991,0,0,0-2.322-.039l-.9-.737a2,2,0,0,0-3.977.369c.008.047.008.086.016.133l-1.13,1.412a2,2,0,0,0-1.106,3.836,1.541,1.541,0,0,0,.557.094Zm11.688-7.53a.43.43,0,0,1,.431.431.425.425,0,0,1-.431.431.43.43,0,0,1-.431-.431h0a.43.43,0,0,1,.431-.431Zm-4.016,3.648a.431.431,0,1,1-.431.431h0a.435.435,0,0,1,.431-.431Zm-4.016-2.189a.431.431,0,1,1-.431.431h0a.43.43,0,0,1,.431-.431Zm-3.655,3.648a.431.431,0,1,1-.431.431h0A.441.441,0,0,1,170.5,190.631Z" transform="translate(-156.365 -174.581)"/>
    </g>
  </g>
</svg>
