<svg xmlns="http://www.w3.org/2000/svg" width="20" height="30" viewBox="0 0 20 30">
  <g id="noun_support_2910396" transform="translate(-13.793 -5)">
    <path id="Path_532" data-name="Path 532" d="M16.458,22.254a2.31,2.31,0,0,0,1.742-.8,6.538,6.538,0,0,0,11.719,0,2.31,2.31,0,0,0,1.742.8h1.361a.614.614,0,0,0,.617-.611V14.479a9.581,9.581,0,0,0-19.161,0v7.164a.614.614,0,0,0,.617.611Zm1.08-2.29a1.076,1.076,0,0,1-1.08,1.069h-.744V15.18h.744a1.076,1.076,0,0,1,1.08,1.069Zm6.522,3.908a5.231,5.231,0,1,1,5.287-5.231A5.266,5.266,0,0,1,24.06,23.872Zm8.346-2.839h-.744a1.076,1.076,0,0,1-1.08-1.069V16.248a1.076,1.076,0,0,1,1.08-1.069h.744v5.853ZM24.06,6.222a8.313,8.313,0,0,1,8.319,7.737h-.717a2.312,2.312,0,0,0-2.069,1.283,6.54,6.54,0,0,0-11.066,0,2.312,2.312,0,0,0-2.069-1.283h-.717A8.313,8.313,0,0,1,24.06,6.222Z" transform="translate(-0.267)"/>
    <path id="Path_533" data-name="Path 533" d="M13.793,48.218a.614.614,0,0,0,.617.611H33.176a.614.614,0,0,0,.617-.611v-3.5a5.607,5.607,0,0,0-5.629-5.572H19.422a5.607,5.607,0,0,0-5.629,5.572v3.5Zm1.234-3.5a4.378,4.378,0,0,1,4.4-4.351h8.741a4.378,4.378,0,0,1,4.4,4.351v2.89H29.27V45.279a.617.617,0,0,0-1.234,0v2.329H19.549V45.279a.617.617,0,0,0-1.234,0v2.329H15.027v-2.89Z" transform="translate(0 -13.829)"/>
  </g>
</svg>
