<svg xmlns="http://www.w3.org/2000/svg" width="30" height="30" viewBox="0 0 30 30">
  <g id="noun_id_1381710" transform="translate(-2 -3.34)" opacity="1">
    <path id="Path_475" data-name="Path 475" d="M48.2,14.568A.784.784,0,0,0,48.2,13h0a.784.784,0,1,0,0,1.568Z" transform="translate(-31.229 -6.63)" fill="rgba(0,0,0,1)"/>
    <path id="Path_476" data-name="Path 476" d="M28.925,8.973H20.891V6.117A2.7,2.7,0,0,0,18.278,3.34H15.666a2.7,2.7,0,0,0-2.612,2.777V8.973H5.075A3.179,3.179,0,0,0,2,12.242v17.83A3.179,3.179,0,0,0,5.075,33.34h23.85A3.179,3.179,0,0,0,32,30.072V12.242A3.179,3.179,0,0,0,28.925,8.973ZM15.663,4.987h2.613A1.085,1.085,0,0,1,19.325,6.1v6.46H14.616V6.117A1.085,1.085,0,0,1,15.666,5ZM30.437,30.072a1.562,1.562,0,0,1-1.512,1.608H5.075a1.562,1.562,0,0,1-1.513-1.608V12.242a1.562,1.562,0,0,1,1.513-1.608h7.978v1.926H11.569a.832.832,0,0,0,0,1.661H22.375a.832.832,0,0,0,0-1.661H20.891V10.634h8.034a1.562,1.562,0,0,1,1.512,1.608Z" transform="translate(0)" fill="rgba(0,0,0,1)"/>
    <path id="Path_477" data-name="Path 477" d="M22.356,50.522a3.2,3.2,0,1,0-4.614,0,4.884,4.884,0,0,0-2.572,4.3.784.784,0,1,0,1.568,0,3.311,3.311,0,0,1,6.621,0,.784.784,0,1,0,1.568,0,4.884,4.884,0,0,0-2.572-4.3Zm-3.939-2.214a1.634,1.634,0,1,1,1.634,1.634A1.634,1.634,0,0,1,18.416,48.308Z" transform="translate(-9.039 -27.433)" fill="rgba(0,0,0,1)"/>
    <path id="Path_478" data-name="Path 478" d="M61.044,47.11h-7.49a.784.784,0,1,0,0,1.568h7.49a.784.784,0,1,0,0-1.568Z" transform="translate(-34.93 -29.184)" fill="rgba(0,0,0,1)"/>
    <path id="Path_479" data-name="Path 479" d="M61.044,59.1h-7.49a.784.784,0,1,0,0,1.568h7.49a.784.784,0,1,0,0-1.568Z" transform="translate(-34.93 -37.179)" fill="rgba(0,0,0,1)"/>
    <path id="Path_480" data-name="Path 480" d="M61.044,71.08h-7.49a.784.784,0,1,0,0,1.568h7.49a.784.784,0,1,0,0-1.568Z" transform="translate(-34.93 -45.167)" fill="rgba(0,0,0,1)"/>
  </g>
</svg>
